<svg width="301" height="180" viewBox="0 0 301 180" fill="none" xmlns="http://www.w3.org/2000/svg">
<path d="M84.732 65.3C84.732 69 85.132 72 85.832 74.2C86.632 76.4 87.632 78.8 89.032 81.4C89.532 82.2 89.732 83 89.732 83.7C89.732 84.7 89.132 85.7 87.832 86.7L81.532 90.9C80.632 91.5 79.732 91.8 78.932 91.8C77.932 91.8 76.932 91.3 75.932 90.4C74.532 88.9 73.332 87.3 72.332 85.7C71.332 84 70.332 82.1 69.232 79.8C61.432 89 51.632 93.6 39.832 93.6C31.432 93.6 24.732 91.2 19.832 86.4C14.932 81.6 12.432 75.2 12.432 67.2C12.432 58.7 15.432 51.8 21.532 46.6C27.632 41.4 35.732 38.8 46.032 38.8C49.432 38.8 52.932 39.1 56.632 39.6C60.332 40.1 64.132 40.9 68.132 41.8V34.5C68.132 26.9 66.532 21.6 63.432 18.5C60.232 15.4 54.832 13.9 47.132 13.9C43.632 13.9 40.032 14.3 36.332 15.2C32.632 16.1 29.032 17.2 25.532 18.6C23.932 19.3 22.732 19.7 22.032 19.9C21.332 20.1 20.832 20.2 20.432 20.2C19.032 20.2 18.332 19.2 18.332 17.1V12.2C18.332 10.6 18.532 9.4 19.032 8.7C19.532 8 20.432 7.3 21.832 6.6C25.332 4.8 29.532 3.3 34.432 2.1C39.332 0.8 44.532 0.2 50.032 0.2C61.932 0.2 70.632 2.9 76.232 8.3C81.732 13.7 84.532 21.9 84.532 32.9V65.3H84.732ZM44.132 80.5C47.432 80.5 50.832 79.9 54.432 78.7C58.032 77.5 61.232 75.3 63.932 72.3C65.532 70.4 66.732 68.3 67.332 65.9C67.932 63.5 68.332 60.6 68.332 57.2V53C65.432 52.3 62.332 51.7 59.132 51.3C55.932 50.9 52.832 50.7 49.732 50.7C43.032 50.7 38.132 52 34.832 54.7C31.532 57.4 29.932 61.2 29.932 66.2C29.932 70.9 31.132 74.4 33.632 76.8C36.032 79.3 39.532 80.5 44.132 80.5ZM124.432 91.3C122.632 91.3 121.432 91 120.632 90.3C119.832 89.7 119.132 88.3 118.532 86.4L95.032 9.1C94.432 7.1 94.132 5.8 94.132 5.1C94.132 3.5 94.932 2.6 96.532 2.6H106.332C108.232 2.6 109.532 2.9 110.232 3.6C111.032 4.2 111.632 5.6 112.232 7.5L129.032 73.7L144.632 7.5C145.132 5.5 145.732 4.2 146.532 3.6C147.332 3 148.732 2.6 150.532 2.6H158.532C160.432 2.6 161.732 2.9 162.532 3.6C163.332 4.2 164.032 5.6 164.432 7.5L180.232 74.5L197.532 7.5C198.132 5.5 198.832 4.2 199.532 3.6C200.332 3 201.632 2.6 203.432 2.6H212.732C214.332 2.6 215.232 3.4 215.232 5.1C215.232 5.6 215.132 6.1 215.032 6.7C214.932 7.3 214.732 8.1 214.332 9.2L190.232 86.5C189.632 88.5 188.932 89.8 188.132 90.4C187.332 91 186.032 91.4 184.332 91.4H175.732C173.832 91.4 172.532 91.1 171.732 90.4C170.932 89.7 170.232 88.4 169.832 86.4L154.332 21.9L138.932 86.3C138.432 88.3 137.832 89.6 137.032 90.3C136.232 91 134.832 91.3 133.032 91.3H124.432ZM252.932 94C247.732 94 242.532 93.4 237.532 92.2C232.532 91 228.632 89.7 226.032 88.2C224.432 87.3 223.332 86.3 222.932 85.4C222.532 84.5 222.332 83.5 222.332 82.6V77.5C222.332 75.4 223.132 74.4 224.632 74.4C225.232 74.4 225.832 74.5 226.432 74.7C227.032 74.9 227.932 75.3 228.932 75.7C232.332 77.2 236.032 78.4 239.932 79.2C243.932 80 247.832 80.4 251.832 80.4C258.132 80.4 263.032 79.3 266.432 77.1C269.832 74.9 271.632 71.7 271.632 67.6C271.632 64.8 270.732 62.5 268.932 60.6C267.132 58.7 263.732 57 258.832 55.4L244.332 50.9C237.032 48.6 231.632 45.2 228.332 40.7C225.032 36.3 223.332 31.4 223.332 26.2C223.332 22 224.232 18.3 226.032 15.1C227.832 11.9 230.232 9.1 233.232 6.9C236.232 4.6 239.632 2.9 243.632 1.7C247.632 0.5 251.832 0 256.232 0C258.432 0 260.732 0.1 262.932 0.4C265.232 0.7 267.332 1.1 269.432 1.5C271.432 2 273.332 2.5 275.132 3.1C276.932 3.7 278.332 4.3 279.332 4.9C280.732 5.7 281.732 6.5 282.332 7.4C282.932 8.2 283.232 9.3 283.232 10.7V15.4C283.232 17.5 282.432 18.6 280.932 18.6C280.132 18.6 278.832 18.2 277.132 17.4C271.432 14.8 265.032 13.5 257.932 13.5C252.232 13.5 247.732 14.4 244.632 16.3C241.532 18.2 239.932 21.1 239.932 25.2C239.932 28 240.932 30.4 242.932 32.3C244.932 34.2 248.632 36.1 253.932 37.8L268.132 42.3C275.332 44.6 280.532 47.8 283.632 51.9C286.732 56 288.232 60.7 288.232 65.9C288.232 70.2 287.332 74.1 285.632 77.5C283.832 80.9 281.432 83.9 278.332 86.3C275.232 88.8 271.532 90.6 267.232 91.9C262.732 93.3 258.032 94 252.932 94Z" fill="#313E52"/>
<path fill-rule="evenodd" clip-rule="evenodd" d="M271.832 142.6C238.932 166.9 191.132 179.8 150.032 179.8C92.432 179.8 40.532 158.5 1.33202 123.1C-1.76798 120.3 1.03202 116.5 4.73202 118.7C47.132 143.3 99.432 158.2 153.532 158.2C190.032 158.2 230.132 150.6 267.032 135C272.532 132.5 277.232 138.6 271.832 142.6Z" fill="#FF9900"/>
<path fill-rule="evenodd" clip-rule="evenodd" d="M285.532 127C281.332 121.6 257.732 124.4 247.032 125.7C243.832 126.1 243.332 123.3 246.232 121.2C265.032 108 295.932 111.8 299.532 116.2C303.132 120.7 298.532 151.6 280.932 166.4C278.232 168.7 275.632 167.5 276.832 164.5C280.832 154.6 289.732 132.3 285.532 127Z" fill="#FF9900"/>
</svg>
